<svg width="1512" height="1831" viewBox="0 0 1512 1831" fill="none" xmlns="http://www.w3.org/2000/svg">
<g clip-path="url(#clip0_170_3)">
<rect width="1512" height="1831" fill="#2C3333"/>
<line x1="133.424" y1="86.7345" x2="227.424" y2="236.734" stroke="#FEFCFC"/>
<line x1="817.796" y1="573.543" x2="1115.8" y2="440.543" stroke="#EAEAEA"/>
<line x1="217.413" y1="651.718" x2="367.413" y2="871.718" stroke="#FEFCFC"/>
<line x1="1075.59" y1="861.72" x2="1242.59" y2="614.72" stroke="#FEFCFC"/>
<line x1="756.488" y1="121.11" x2="698.488" y2="378.11" stroke="#FEFCFC"/>
<line x1="1329.5" y1="104.008" x2="1325.5" y2="-132.992" stroke="#FEFCFC"/>
<line x1="1393.36" y1="380.655" x2="1577.36" y2="573.655" stroke="#FEFCFC"/>
<line x1="684.551" y1="842.22" x2="573.551" y2="615.22" stroke="#FEFCFC"/>
<line x1="671.319" y1="190.615" x2="852.319" y2="340.615" stroke="#FEFCFC"/>
<line x1="254.194" y1="491.461" x2="-39.8057" y2="615.461" stroke="#FEFCFC"/>
<line x1="427.331" y1="410.625" x2="461.331" y2="440.625" stroke="#FEFCFC"/>
<line x1="872.37" y1="725.337" x2="698.37" y2="916.337" stroke="#FEFCFC"/>
<line x1="393.649" y1="791.643" x2="573.649" y2="614.643" stroke="#FEFCFC"/>
<line x1="563.757" y1="124.437" x2="313.763" y2="-14.5733" stroke="#FEFCFC"/>
<line x1="177.316" y1="334.388" x2="0.315546" y2="478.388" stroke="white"/>
<line x1="150.42" y1="812.272" x2="40.4198" y2="982.272" stroke="white"/>
<line x1="1343.42" y1="774.735" x2="1450.42" y2="945.735" stroke="white"/>
<line x1="1004.52" y1="133.868" x2="1055.52" y2="-53.1316" stroke="white"/>
<line x1="591.394" y1="1289.69" x2="698.394" y2="1426.69" stroke="white"/>
<line x1="951.613" y1="1392.68" x2="1115.61" y2="1192.68" stroke="white"/>
<line x1="538.117" y1="1049.49" x2="-59.883" y2="1193.49" stroke="white"/>
<line x1="965.426" y1="1473.74" x2="1076.43" y2="1653.74" stroke="white"/>
<line x1="1192.61" y1="1516.69" x2="1372.61" y2="1292.69" stroke="white"/>
<line x1="756.217" y1="1093.45" x2="698.217" y2="1121.45" stroke="white"/>
<line x1="367.398" y1="1457.3" x2="217.398" y2="1654.3" stroke="white"/>
<line x1="756.424" y1="1579.74" x2="852.424" y2="1733.74" stroke="white"/>
<line x1="1346.35" y1="1573.64" x2="1512.35" y2="1733.64" stroke="white"/>
<line opacity="0.8" x1="1288.52" y1="1146.84" x2="1342.52" y2="981.844" stroke="white"/>
<line x1="351.14" y1="1216.48" x2="180.14" y2="1266.48" stroke="white"/>
<line x1="797.629" y1="1262.66" x2="951.629" y2="1092.66" stroke="white"/>
<line x1="1005.26" y1="955.571" x2="1160.26" y2="1048.57" stroke="white"/>
</g>
<defs>
<clipPath id="clip0_170_3">
<rect width="1512" height="1831" fill="white"/>
</clipPath>
</defs>
</svg>
