<svg width="390" height="1147" viewBox="0 0 390 1147" fill="none" xmlns="http://www.w3.org/2000/svg">
<g clip-path="url(#clip0_10_27)">
<rect width="390" height="1147" fill="white"/>
<line opacity="0.4" x1="265.24" y1="52.5615" x2="411.24" y2="132.562" stroke="black"/>
<line x1="428.238" y1="297.44" x2="315.238" y2="358.44" stroke="black"/>
<line x1="54.5646" y1="612.754" x2="146.565" y2="449.754" stroke="black" stroke-opacity="0.4"/>
<line opacity="0.4" x1="17.1313" y1="820.518" x2="186.131" y2="866.518" stroke="black"/>
<line x1="136.386" y1="266.682" x2="202.386" y2="346.682" stroke="black" stroke-opacity="0.4"/>
<line x1="107.635" y1="727.342" x2="0.635431" y2="613.342" stroke="black"/>
<line x1="265.425" y1="509.737" x2="341.425" y2="632.737" stroke="black"/>
<line x1="51.2481" y1="303.434" x2="-25.7519" y2="347.434" stroke="black"/>
<line x1="108.215" y1="53.4515" x2="-55.7852" y2="131.452" stroke="black"/>
<line x1="233.439" y1="697.76" x2="338.439" y2="889.76" stroke="black"/>
<line x1="201.676" y1="197.619" x2="262.676" y2="145.619" stroke="black"/>
<line x1="217.19" y1="1005.54" x2="441.19" y2="1097.54" stroke="black" stroke-opacity="0.4"/>
<line x1="70.8143" y1="954.536" x2="85.8143" y2="948.536" stroke="black"/>
<line x1="89.3968" y1="1054.7" x2="217.397" y2="1221.7" stroke="black"/>
</g>
<defs>
<clipPath id="clip0_10_27">
<rect width="390" height="1147" fill="white"/>
</clipPath>
</defs>
</svg>
